<?xml version="1.0" encoding="UTF-8" standalone="no"?>
<!DOCTYPE svg PUBLIC "-//W3C//DTD SVG 1.1//EN"
 "http://www.w3.org/Graphics/SVG/1.1/DTD/svg11.dtd">
<!-- Generated by graphviz version 2.40.1 (20161225.0304)
 -->
<!-- Title: dependencies Pages: 1 -->
<svg width="1455pt" height="284pt"
 viewBox="0.00 0.00 1455.00 284.00" xmlns="http://www.w3.org/2000/svg" xmlns:xlink="http://www.w3.org/1999/xlink">
<g id="graph0" class="graph" transform="scale(1 1) rotate(0) translate(4 280)">
<title>dependencies</title>
<polygon fill="#ffffff" stroke="transparent" points="-4,4 -4,-280 1451,-280 1451,4 -4,4"/>
<text text-anchor="start" x="702.5091" y="-42.4" font-family="sans-serif" font-weight="bold" font-size="14.00" fill="#000000">Legend</text>
<polygon fill="#ffffb3" stroke="transparent" points="489.5,-10 489.5,-30 509.5,-30 509.5,-10 489.5,-10"/>
<text text-anchor="start" x="513.129" y="-15.4" font-family="sans-serif" font-size="14.00" fill="#000000"> &#160;Declarations</text>
<polygon fill="#8dd3c7" stroke="transparent" points="602.5,-10 602.5,-30 622.5,-30 622.5,-10 602.5,-10"/>
<text text-anchor="start" x="626.2251" y="-15.4" font-family="sans-serif" font-size="14.00" fill="#000000"> &#160;Module</text>
<polygon fill="#80b1d3" stroke="transparent" points="688.5,-10 688.5,-30 708.5,-30 708.5,-10 688.5,-10"/>
<text text-anchor="start" x="712.2812" y="-15.4" font-family="sans-serif" font-size="14.00" fill="#000000"> &#160;Bootstrap</text>
<polygon fill="#fdb462" stroke="transparent" points="785.5,-10 785.5,-30 805.5,-30 805.5,-10 785.5,-10"/>
<text text-anchor="start" x="809.1732" y="-15.4" font-family="sans-serif" font-size="14.00" fill="#000000"> &#160;Providers</text>
<polygon fill="#fb8072" stroke="transparent" points="881.5,-10 881.5,-30 901.5,-30 901.5,-10 881.5,-10"/>
<text text-anchor="start" x="905.2258" y="-15.4" font-family="sans-serif" font-size="14.00" fill="#000000"> &#160;Exports</text>
<g id="clust1" class="cluster">
<title>cluster_AppModule</title>
<polygon fill="none" stroke="#000000" stroke-dasharray="1,5" points="8,-70 8,-268 1439,-268 1439,-70 8,-70"/>
</g>
<g id="clust2" class="cluster">
<title>cluster_AppModule_declarations</title>
<polygon fill="none" stroke="#000000" points="739,-78 739,-130 1431,-130 1431,-78 739,-78"/>
</g>
<g id="clust8" class="cluster">
<title>cluster_AppModule_imports</title>
<polygon fill="none" stroke="#000000" points="462,-78 462,-130 731,-130 731,-78 462,-78"/>
</g>
<g id="clust9" class="cluster">
<title>cluster_AppModule_exports</title>
<polygon fill="none" stroke="#000000" points="293,-208 293,-260 1002,-260 1002,-208 293,-208"/>
</g>
<g id="clust11" class="cluster">
<title>cluster_AppModule_providers</title>
<polygon fill="none" stroke="#000000" points="16,-78 16,-130 454,-130 454,-78 16,-78"/>
</g>
<!-- AppComponent -->
<g id="node1" class="node">
<title>AppComponent</title>
<polygon fill="#ffffb3" stroke="#000000" points="1422.9399,-122 1317.0601,-122 1317.0601,-86 1422.9399,-86 1422.9399,-122"/>
<text text-anchor="middle" x="1370" y="-99.8" font-family="Times,serif" font-size="14.00" fill="#000000">AppComponent</text>
</g>
<!-- AppModule -->
<g id="node6" class="node">
<title>AppModule</title>
<polygon fill="#8dd3c7" stroke="#000000" points="776.6571,-187 773.6571,-191 752.6571,-191 749.6571,-187 693.3429,-187 693.3429,-151 776.6571,-151 776.6571,-187"/>
<text text-anchor="middle" x="735" y="-164.8" font-family="Times,serif" font-size="14.00" fill="#000000">AppModule</text>
</g>
<!-- AppComponent&#45;&gt;AppModule -->
<g id="edge1" class="edge">
<title>AppComponent&#45;&gt;AppModule</title>
<path fill="none" stroke="#000000" d="M1370,-122.2228C1370,-142.3652 1370,-172 1370,-172 1370,-172 786.6641,-172 786.6641,-172"/>
<polygon fill="#000000" stroke="#000000" points="786.6642,-168.5001 776.6641,-172 786.6641,-175.5001 786.6642,-168.5001"/>
</g>
<!-- LoginComponent -->
<g id="node2" class="node">
<title>LoginComponent</title>
<polygon fill="#ffffb3" stroke="#000000" points="1299.2758,-122 1184.7242,-122 1184.7242,-86 1299.2758,-86 1299.2758,-122"/>
<text text-anchor="middle" x="1242" y="-99.8" font-family="Times,serif" font-size="14.00" fill="#000000">LoginComponent</text>
</g>
<!-- LoginComponent&#45;&gt;AppModule -->
<g id="edge2" class="edge">
<title>LoginComponent&#45;&gt;AppModule</title>
<path fill="none" stroke="#000000" d="M1242,-122.2222C1242,-140.8285 1242,-167 1242,-167 1242,-167 786.9213,-167 786.9213,-167"/>
<polygon fill="#000000" stroke="#000000" points="786.9213,-163.5001 776.9213,-167 786.9212,-170.5001 786.9213,-163.5001"/>
</g>
<!-- PostsListComponent -->
<g id="node3" class="node">
<title>PostsListComponent</title>
<polygon fill="#ffffb3" stroke="#000000" points="1166.1736,-122 1033.8264,-122 1033.8264,-86 1166.1736,-86 1166.1736,-122"/>
<text text-anchor="middle" x="1100" y="-99.8" font-family="Times,serif" font-size="14.00" fill="#000000">PostsListComponent</text>
</g>
<!-- PostsListComponent&#45;&gt;AppModule -->
<g id="edge3" class="edge">
<title>PostsListComponent&#45;&gt;AppModule</title>
<path fill="none" stroke="#000000" d="M1100,-122.0336C1100,-139.0597 1100,-162 1100,-162 1100,-162 786.8701,-162 786.8701,-162"/>
<polygon fill="#000000" stroke="#000000" points="786.8702,-158.5001 776.8701,-162 786.8701,-165.5001 786.8702,-158.5001"/>
</g>
<!-- SignupComponent -->
<g id="node4" class="node">
<title>SignupComponent</title>
<polygon fill="#ffffb3" stroke="#000000" points="1015.5056,-122 894.4944,-122 894.4944,-86 1015.5056,-86 1015.5056,-122"/>
<text text-anchor="middle" x="955" y="-99.8" font-family="Times,serif" font-size="14.00" fill="#000000">SignupComponent</text>
</g>
<!-- SignupComponent&#45;&gt;AppModule -->
<g id="edge4" class="edge">
<title>SignupComponent&#45;&gt;AppModule</title>
<path fill="none" stroke="#000000" d="M944.4834,-122.2396C944.4834,-137.5706 944.4834,-157 944.4834,-157 944.4834,-157 786.8886,-157 786.8886,-157"/>
<polygon fill="#000000" stroke="#000000" points="786.8886,-153.5001 776.8886,-157 786.8886,-160.5001 786.8886,-153.5001"/>
</g>
<!-- UserListComponent -->
<g id="node5" class="node">
<title>UserListComponent</title>
<polygon fill="#ffffb3" stroke="#000000" points="876.538,-122 747.462,-122 747.462,-86 876.538,-86 876.538,-122"/>
<text text-anchor="middle" x="812" y="-99.8" font-family="Times,serif" font-size="14.00" fill="#000000">UserListComponent</text>
</g>
<!-- UserListComponent&#45;&gt;AppModule -->
<g id="edge5" class="edge">
<title>UserListComponent&#45;&gt;AppModule</title>
<path fill="none" stroke="#000000" d="M762.0298,-122.1061C762.0298,-122.1061 762.0298,-140.991 762.0298,-140.991"/>
<polygon fill="#000000" stroke="#000000" points="758.5299,-140.9909 762.0298,-150.991 765.5299,-140.991 758.5299,-140.9909"/>
</g>
<!-- AppComponent  -->
<g id="node9" class="node">
<title>AppComponent </title>
<polygon fill="#fb8072" stroke="#000000" points="994.439,-252 885.561,-252 885.561,-216 994.439,-216 994.439,-252"/>
<text text-anchor="middle" x="940" y="-229.8" font-family="Times,serif" font-size="14.00" fill="#000000">AppComponent </text>
</g>
<!-- AppModule&#45;&gt;AppComponent  -->
<g id="edge8" class="edge">
<title>AppModule&#45;&gt;AppComponent </title>
<path fill="none" stroke="#000000" stroke-dasharray="5,2" d="M776.9414,-177C823.301,-177 891.5083,-177 891.5083,-177 891.5083,-177 891.5083,-205.9648 891.5083,-205.9648"/>
<polygon fill="#000000" stroke="#000000" points="888.0084,-205.9648 891.5083,-215.9648 895.0084,-205.9649 888.0084,-205.9648"/>
</g>
<!-- AppModule&#45;&gt;AppComponent  -->
<g id="edge13" class="edge">
<title>AppModule&#45;&gt;AppComponent </title>
<path fill="none" stroke="#000000" stroke-dasharray="1,5" d="M776.9499,-182C822.4041,-182 888.5194,-182 888.5194,-182 888.5194,-182 888.5194,-205.8129 888.5194,-205.8129"/>
<polygon fill="#000000" stroke="#000000" points="885.0195,-205.8129 888.5194,-215.8129 892.0195,-205.813 885.0195,-205.8129"/>
</g>
<!-- LoginComponent  -->
<g id="node10" class="node">
<title>LoginComponent </title>
<polygon fill="#fb8072" stroke="#000000" points="867.2759,-252 748.7241,-252 748.7241,-216 867.2759,-216 867.2759,-252"/>
<text text-anchor="middle" x="808" y="-229.8" font-family="Times,serif" font-size="14.00" fill="#000000">LoginComponent </text>
</g>
<!-- AppModule&#45;&gt;LoginComponent  -->
<g id="edge9" class="edge">
<title>AppModule&#45;&gt;LoginComponent </title>
<path fill="none" stroke="#000000" stroke-dasharray="5,2" d="M762.8452,-187.1061C762.8452,-187.1061 762.8452,-205.991 762.8452,-205.991"/>
<polygon fill="#000000" stroke="#000000" points="759.3453,-205.9909 762.8452,-215.991 766.3453,-205.991 759.3453,-205.9909"/>
</g>
<!-- PostsListComponent  -->
<g id="node11" class="node">
<title>PostsListComponent </title>
<polygon fill="#fb8072" stroke="#000000" points="731.1733,-252 594.8267,-252 594.8267,-216 731.1733,-216 731.1733,-252"/>
<text text-anchor="middle" x="663" y="-229.8" font-family="Times,serif" font-size="14.00" fill="#000000">PostsListComponent </text>
</g>
<!-- AppModule&#45;&gt;PostsListComponent  -->
<g id="edge10" class="edge">
<title>AppModule&#45;&gt;PostsListComponent </title>
<path fill="none" stroke="#000000" stroke-dasharray="5,2" d="M712.1292,-187.1061C712.1292,-187.1061 712.1292,-205.991 712.1292,-205.991"/>
<polygon fill="#000000" stroke="#000000" points="708.6293,-205.9909 712.1292,-215.991 715.6293,-205.991 708.6293,-205.9909"/>
</g>
<!-- SignupComponent  -->
<g id="node12" class="node">
<title>SignupComponent </title>
<polygon fill="#fb8072" stroke="#000000" points="577.0066,-252 452.9934,-252 452.9934,-216 577.0066,-216 577.0066,-252"/>
<text text-anchor="middle" x="515" y="-229.8" font-family="Times,serif" font-size="14.00" fill="#000000">SignupComponent </text>
</g>
<!-- AppModule&#45;&gt;SignupComponent  -->
<g id="edge11" class="edge">
<title>AppModule&#45;&gt;SignupComponent </title>
<path fill="none" stroke="#000000" stroke-dasharray="5,2" d="M693.1132,-182C626.8228,-182 505.1716,-182 505.1716,-182 505.1716,-182 505.1716,-205.8129 505.1716,-205.8129"/>
<polygon fill="#000000" stroke="#000000" points="501.6717,-205.8129 505.1716,-215.8129 508.6717,-205.813 501.6717,-205.8129"/>
</g>
<!-- UserListComponent  -->
<g id="node13" class="node">
<title>UserListComponent </title>
<polygon fill="#fb8072" stroke="#000000" points="434.5372,-252 301.4628,-252 301.4628,-216 434.5372,-216 434.5372,-252"/>
<text text-anchor="middle" x="368" y="-229.8" font-family="Times,serif" font-size="14.00" fill="#000000">UserListComponent </text>
</g>
<!-- AppModule&#45;&gt;UserListComponent  -->
<g id="edge12" class="edge">
<title>AppModule&#45;&gt;UserListComponent </title>
<path fill="none" stroke="#000000" stroke-dasharray="5,2" d="M693.2577,-177C597.0674,-177 368,-177 368,-177 368,-177 368,-205.9648 368,-205.9648"/>
<polygon fill="#000000" stroke="#000000" points="364.5001,-205.9648 368,-215.9648 371.5001,-205.9649 364.5001,-205.9648"/>
</g>
<!-- AppRoutingModule -->
<g id="node7" class="node">
<title>AppRoutingModule</title>
<polygon fill="#8dd3c7" stroke="#000000" points="723.2744,-122 720.2744,-126 699.2744,-126 696.2744,-122 594.7256,-122 594.7256,-86 723.2744,-86 723.2744,-122"/>
<text text-anchor="middle" x="659" y="-99.8" font-family="Times,serif" font-size="14.00" fill="#000000">AppRoutingModule</text>
</g>
<!-- AppRoutingModule&#45;&gt;AppModule -->
<g id="edge6" class="edge">
<title>AppRoutingModule&#45;&gt;AppModule</title>
<path fill="none" stroke="#000000" d="M708.2795,-122.1061C708.2795,-122.1061 708.2795,-140.991 708.2795,-140.991"/>
<polygon fill="#000000" stroke="#000000" points="704.7795,-140.9909 708.2795,-150.991 711.7795,-140.991 704.7795,-140.9909"/>
</g>
<!-- MaterialModule -->
<g id="node8" class="node">
<title>MaterialModule</title>
<polygon fill="#8dd3c7" stroke="#000000" points="576.4706,-122 573.4706,-126 552.4706,-126 549.4706,-122 469.5294,-122 469.5294,-86 576.4706,-86 576.4706,-122"/>
<text text-anchor="middle" x="523" y="-99.8" font-family="Times,serif" font-size="14.00" fill="#000000">MaterialModule</text>
</g>
<!-- MaterialModule&#45;&gt;AppModule -->
<g id="edge7" class="edge">
<title>MaterialModule&#45;&gt;AppModule</title>
<path fill="none" stroke="#000000" d="M540.8284,-122.2396C540.8284,-137.5706 540.8284,-157 540.8284,-157 540.8284,-157 682.8677,-157 682.8677,-157"/>
<polygon fill="#000000" stroke="#000000" points="682.8677,-160.5001 692.8677,-157 682.8676,-153.5001 682.8677,-160.5001"/>
</g>
<!-- CommentService -->
<g id="node14" class="node">
<title>CommentService</title>
<ellipse fill="#fdb462" stroke="#000000" cx="368" cy="-104" rx="78.1675" ry="18"/>
<text text-anchor="middle" x="368" y="-99.8" font-family="Times,serif" font-size="14.00" fill="#000000">CommentService</text>
</g>
<!-- CommentService&#45;&gt;AppModule -->
<g id="edge14" class="edge">
<title>CommentService&#45;&gt;AppModule</title>
<path fill="none" stroke="#000000" d="M440.3012,-111.1119C440.3012,-126.5996 440.3012,-162 440.3012,-162 440.3012,-162 683.0898,-162 683.0898,-162"/>
<polygon fill="#000000" stroke="#000000" points="683.0898,-165.5001 693.0898,-162 683.0898,-158.5001 683.0898,-165.5001"/>
</g>
<!-- PostService -->
<g id="node15" class="node">
<title>PostService</title>
<ellipse fill="#fdb462" stroke="#000000" cx="215" cy="-104" rx="56.7561" ry="18"/>
<text text-anchor="middle" x="215" y="-99.8" font-family="Times,serif" font-size="14.00" fill="#000000">PostService</text>
</g>
<!-- PostService&#45;&gt;AppModule -->
<g id="edge15" class="edge">
<title>PostService&#45;&gt;AppModule</title>
<path fill="none" stroke="#000000" d="M215,-122.2222C215,-140.8285 215,-167 215,-167 215,-167 683.3252,-167 683.3252,-167"/>
<polygon fill="#000000" stroke="#000000" points="683.3253,-170.5001 693.3252,-167 683.3252,-163.5001 683.3253,-170.5001"/>
</g>
<!-- UserService -->
<g id="node16" class="node">
<title>UserService</title>
<ellipse fill="#fdb462" stroke="#000000" cx="82" cy="-104" rx="58.4415" ry="18"/>
<text text-anchor="middle" x="82" y="-99.8" font-family="Times,serif" font-size="14.00" fill="#000000">UserService</text>
</g>
<!-- UserService&#45;&gt;AppModule -->
<g id="edge16" class="edge">
<title>UserService&#45;&gt;AppModule</title>
<path fill="none" stroke="#000000" d="M82,-122.2228C82,-142.3652 82,-172 82,-172 82,-172 683.1586,-172 683.1586,-172"/>
<polygon fill="#000000" stroke="#000000" points="683.1586,-175.5001 693.1586,-172 683.1585,-168.5001 683.1586,-175.5001"/>
</g>
</g>
</svg>
